# xmcd
#
# Track frame offsets:
#	150
#	15059
#	34182
#	51994
#	69573
#	95648
#	113088
#	134099
#	152269
#	168588
#	183830
#	205115
#	225947
#	242417
#	263523
#
# Disc length: 3753 seconds
#
# Revision: 0
# Processed by: cddbd v1.5.1PL0 Copyright (c) Steve Scherf et al.
# Submitted via: audiograbber 1.82.02
#
DISCID=b50ea70f
DTITLE=Various Artist - Solid Gold Soul 80s Gold CD2
DYEAR=1980
DGENRE=Soul
TTITLE0=Cap Band - Outstanding
TTITLE1=Ready For The World - Oh Sheila
TTITLE2=Pointer Sisters - Neutron Dance
TTITLE3=Evelyn King - I'm In Love
TTITLE4=Imagination - Looking At Midnight
TTITLE5=Kurtis Blow - The Breaks
TTITLE6=Amil Stewart - Friends
TTITLE7=Heatwave - Gangsters Of The Groove
TTITLE8=Teena Marie - I Need Your Lovin'
TTITLE9=Hot Cocolate - Girl Crazy
TTITLE10=Chaka Khan - This Is My Night
TTITLE11=Jacksons - Walk Right Now
TTITLE12=Mica Paris and Will Downing - My One Temptation
TTITLE13=Deon Estus - Heaven Help Me
TTITLE14=Ruby Turner - I't Rather Go Blind
EXTD=
EXTT0=
EXTT1=
EXTT2=
EXTT3=
EXTT4=
EXTT5=
EXTT6=
EXTT7=
EXTT8=
EXTT9=
EXTT10=
EXTT11=
EXTT12=
EXTT13=
EXTT14=
PLAYORDER=
